<svg width="24" height="24" viewBox="0 0 24 24" fill="none" xmlns="http://www.w3.org/2000/svg">
  <path d="M12 8.4C10.01 8.4 8.4 10.01 8.4 12C8.4 13.99 10.01 15.6 12 15.6C13.99 15.6 15.6 13.99 15.6 12C15.6 10.01 13.99 8.4 12 8.4Z" stroke="#E5E7EB" stroke-width="1.8"/>
  <path d="M19.1 13.2V10.8L16.95 10.35C16.8 9.85 16.6 9.37 16.32 8.93L17.57 7.12L15.88 5.43L14.07 6.68C13.63 6.4 13.15 6.2 12.65 6.05L12.2 3.9H9.8L9.35 6.05C8.85 6.2 8.37 6.4 7.93 6.68L6.12 5.43L4.43 7.12L5.68 8.93C5.4 9.37 5.2 9.85 5.05 10.35L2.9 10.8V13.2L5.05 13.65C5.2 14.15 5.4 14.63 5.68 15.07L4.43 16.88L6.12 18.57L7.93 17.32C8.37 17.6 8.85 17.8 9.35 17.95L9.8 20.1H12.2L12.65 17.95C13.15 17.8 13.63 17.6 14.07 17.32L15.88 18.57L17.57 16.88L16.32 15.07C16.6 14.63 16.8 14.15 16.95 13.65L19.1 13.2Z" stroke="#E5E7EB" stroke-width="1.4" stroke-linejoin="round"/>
</svg>
